<svg width="64" height="64" viewBox="0 0 64 64" fill="none" xmlns="http://www.w3.org/2000/svg" role="img" aria-label="Batik Kawung">
  <rect x="6" y="6" width="52" height="52" rx="8" fill="#F8F0DF"/>
  <path d="M32 10C40 18 40 26 32 32C24 26 24 18 32 10Z" fill="#C99A2E" opacity=".9"/>
  <path d="M32 54C24 46 24 38 32 32C40 38 40 46 32 54Z" fill="#C99A2E" opacity=".9"/>
  <path d="M10 32C18 24 26 24 32 32C26 40 18 40 10 32Z" fill="#8A2636" opacity=".9"/>
  <path d="M54 32C46 40 38 40 32 32C38 24 46 24 54 32Z" fill="#8A2636" opacity=".9"/>
  <circle cx="32" cy="32" r="5" fill="#13213B"/>
  <rect x="6" y="6" width="52" height="52" rx="8" stroke="#13213B" stroke-width="2"/>
</svg>

